<svg width="24" height="18" xmlns="http://www.w3.org/2000/svg"><path d="M20.382 1.443A19.73 19.73 0 0015.607.001a.073.073 0 00-.076.036c-.207.357-.435.822-.595 1.189a18.338 18.338 0 00-5.363 0C9.413.85 9.176.394 8.969.036a.076.076 0 00-.077-.035 19.675 19.675 0 00-4.775 1.442.068.068 0 00-.031.026C1.045 5.893.21 10.21.62 14.47a.078.078 0 00.03.054 19.663 19.663 0 005.858 2.883.077.077 0 00.083-.026c.451-.6.853-1.233 1.198-1.898a.072.072 0 00-.04-.1 12.959 12.959 0 01-1.83-.85.072.072 0 01-.008-.121c.123-.09.246-.183.364-.278a.074.074 0 01.075-.01c3.84 1.707 7.996 1.707 11.79 0a.074.074 0 01.077.01c.117.094.24.188.364.278.043.03.04.095-.006.121-.585.333-1.192.614-1.831.848a.072.072 0 00-.04.102 15.13 15.13 0 001.197 1.897.076.076 0 00.083.027 19.598 19.598 0 005.867-2.883.072.072 0 00.03-.052c.49-4.927-.819-9.207-3.468-13a.059.059 0 00-.03-.028zM8.362 11.875c-1.155 0-2.108-1.033-2.108-2.302 0-1.269.934-2.302 2.109-2.302 1.183 0 2.126 1.042 2.108 2.302 0 1.269-.934 2.302-2.108 2.302zm7.796 0c-1.156 0-2.109-1.033-2.109-2.302 0-1.269.934-2.302 2.109-2.302 1.183 0 2.126 1.042 2.108 2.302 0 1.269-.925 2.302-2.108 2.302z"/></svg>