<svg width="19" height="18" xmlns="http://www.w3.org/2000/svg"><path d="M9.243 0C4.139 0 0 4.045 0 9.036c0 3.992 2.648 7.378 6.323 8.574.462.083.63-.196.63-.436 0-.215-.007-.783-.012-1.537-2.571.546-3.114-1.211-3.114-1.211-.42-1.044-1.026-1.322-1.026-1.322-.84-.56.062-.549.062-.549.928.064 1.416.931 1.416.931.825 1.38 2.164.983 2.69.75.084-.583.323-.981.588-1.207-2.052-.229-4.21-1.004-4.21-4.466 0-.986.36-1.793.951-2.425-.095-.228-.412-1.147.09-2.39 0 0 .777-.244 2.543.925.737-.2 1.527-.3 2.314-.303a9.065 9.065 0 012.315.304c1.764-1.169 2.54-.926 2.54-.926.503 1.245.186 2.163.092 2.391.592.632.95 1.439.95 2.426 0 3.47-2.161 4.234-4.22 4.458.331.279.627.83.627 1.673 0 1.208-.011 2.182-.011 2.478 0 .242.166.523.635.434 3.669-1.197 6.315-4.582 6.315-8.572 0-4.99-4.14-9.036-9.245-9.036z"/></svg>