<svg version="1.1" id="Capa_1" xmlns="http://www.w3.org/2000/svg" x="0" y="0" viewBox="0 0 55.992 55.992" xml:space="preserve"><path d="M55.963 18.713c.006-.025.015-.049.019-.074a1.011 1.011 0 00-.009-.338c-.005-.027-.017-.051-.025-.077-.016-.055-.027-.11-.052-.162-.017-.035-.043-.062-.063-.094-.011-.017-.012-.036-.024-.053l-7.5-10.5a.967.967 0 00-.404-.313.99.99 0 00-.513-.523l-9.25-4a1.004 1.004 0 00-.397-.082h-19.5c-.137 0-.271.028-.397.082l-9.25 4a.993.993 0 00-.512.522.975.975 0 00-.404.314l-7.5 10.5c-.012.016-.013.036-.024.053-.02.032-.046.059-.062.094-.025.052-.036.108-.052.162-.007.026-.019.051-.024.077a.985.985 0 00-.009.338c.004.026.013.049.019.074a1.016 1.016 0 00.145.34c.014.021.022.045.038.066l27 34c.008.01.021.014.029.023a.99.99 0 00.302.241c.018.009.037.015.056.023.124.054.257.091.397.091s.273-.037.397-.091c.019-.008.038-.014.056-.023.115-.059.216-.141.302-.241.008-.009.021-.013.029-.023l27-34c.016-.02.024-.045.039-.066a1.096 1.096 0 00.143-.34zM18.453 4.496h19.086l7.169 3.1-7.215 3.9H18.499l-7.215-3.9 7.169-3.1zm-2.716 25h24.518L27.996 50.512 15.737 29.496zm.04-2l3.5-14h17.468l4.064 14H15.777zM2.801 17.69l6.393-8.95 8.114 4.386-3.4 13.601-11.053-9.006c-.016-.014-.037-.019-.054-.031zm10.205 10.882a.983.983 0 00.127.428L20.1 40.945 5.267 22.266l7.739 6.306zm22.886 12.373L42.86 29a.996.996 0 00.127-.428l7.74-6.306-14.835 18.679zm6.665-14.604l-3.842-13.232 8.083-4.369 6.393 8.95c-.017.012-.038.017-.055.031l-10.579 8.62z"/></svg>