<svg width="20" height="20" xmlns="http://www.w3.org/2000/svg"><path fill-rule="evenodd" clip-rule="evenodd" d="M1.377 1.377C0 2.753 0 4.969 0 9.4v.783c0 4.432 0 6.648 1.377 8.025 1.376 1.377 3.592 1.377 8.024 1.377h.783c4.432 0 6.648 0 8.025-1.377 1.377-1.377 1.377-3.593 1.377-8.025V9.4c0-4.432 0-6.647-1.377-8.024C16.832 0 14.616 0 10.184 0h-.783C4.969 0 2.754 0 1.377 1.377zm1.928 4.58c.106 5.093 2.652 8.153 7.116 8.153h.253v-2.913c1.64.163 2.88 1.362 3.379 2.913h2.317c-.636-2.318-2.31-3.599-3.354-4.089 1.045-.604 2.514-2.072 2.864-4.064h-2.105c-.457 1.616-1.812 3.085-3.1 3.224V5.957H8.568v5.647c-1.306-.326-2.954-1.91-3.028-5.647H3.305z"/></svg>