<?xml version="1.0" encoding="utf-8"?><svg viewBox="0 0 1492.8 2000" xmlns="http://www.w3.org/2000/svg" xmlns:xlink="http://www.w3.org/1999/xlink"><style>:root>svg{display:none}:root>svg:target{display:block}</style><svg viewBox="0 0 8 72" id="arrow-down" xmlns="http://www.w3.org/2000/svg"><path d="M3.646 71.354a.5.5 0 00.708 0l3.182-3.182a.5.5 0 10-.708-.707L4 70.293l-2.828-2.829a.5.5 0 10-.708.708l3.182 3.182zM3.5 0v71h1V0h-1z"/></svg><svg viewBox="0 0 8 72" id="arrow-top" xmlns="http://www.w3.org/2000/svg"><path d="M4.354.646a.5.5 0 00-.708 0L.464 3.828a.5.5 0 00.708.708L4 1.707l2.828 2.829a.5.5 0 10.708-.708L4.354.646zM4.5 72V1h-1v71h1z"/></svg><svg viewBox="0 0 1866 2500" id="avocode" xmlns="http://www.w3.org/2000/svg"><path class="cst0" d="M933 5.9C456.1 5.9 0 887.1 0 1561.1c0 516.1 416.9 933 933 933s933-416.9 933-933c0-674-456.1-1555.2-933-1555.2zm0 2021.7c-257.1 0-466.5-209.4-466.5-466.5 0-346.3 236.2-777.7 466.5-777.7s466.5 431.4 466.5 777.7c0 257.1-209.4 466.5-466.5 466.5z"/></svg><svg viewBox="0 0 24 18" id="discord" xmlns="http://www.w3.org/2000/svg"><path d="M20.382 1.443A19.73 19.73 0 0015.607.001a.073.073 0 00-.076.036c-.207.357-.435.822-.595 1.189a18.338 18.338 0 00-5.363 0C9.413.85 9.176.394 8.969.036a.076.076 0 00-.077-.035 19.675 19.675 0 00-4.775 1.442.068.068 0 00-.031.026C1.045 5.893.21 10.21.62 14.47c.002.022.014.042.03.054a19.663 19.663 0 005.858 2.883c.031.01.063-.002.083-.026.451-.6.853-1.233 1.198-1.898a.072.072 0 00-.04-.1 12.959 12.959 0 01-1.83-.85.072.072 0 01-.008-.121c.123-.09.246-.183.364-.278a.074.074 0 01.075-.01c3.84 1.707 7.996 1.707 11.79 0a.074.074 0 01.077.01c.117.094.24.188.364.278.043.03.04.095-.006.121-.585.333-1.192.614-1.831.848a.072.072 0 00-.04.102 15.13 15.13 0 001.197 1.897.076.076 0 00.083.027 19.598 19.598 0 005.867-2.883.072.072 0 00.03-.052c.49-4.927-.819-9.207-3.468-13a.059.059 0 00-.03-.028zM8.362 11.875c-1.155 0-2.108-1.033-2.108-2.302 0-1.269.934-2.302 2.109-2.302 1.183 0 2.126 1.042 2.108 2.302 0 1.269-.934 2.302-2.108 2.302zm7.796 0c-1.156 0-2.109-1.033-2.109-2.302 0-1.269.934-2.302 2.109-2.302 1.183 0 2.126 1.042 2.108 2.302 0 1.269-.925 2.302-2.108 2.302z"/></svg><svg viewBox="0 0 19 18" id="facebook" xmlns="http://www.w3.org/2000/svg"><path d="M18.11 9.055A9.055 9.055 0 107.64 18v-6.328H5.341V9.055h2.3V7.06c0-2.27 1.351-3.523 3.42-3.523.99 0 2.026.177 2.026.177v2.228h-1.142c-1.124 0-1.475.698-1.475 1.415v1.698h2.511l-.401 2.617h-2.11V18c4.329-.68 7.64-4.425 7.64-8.945z"/></svg><svg viewBox="0 0 42 61" fill="none" id="figma" xmlns="http://www.w3.org/2000/svg"><path d="M21 30.5a9.5 9.5 0 1119 0 9.5 9.5 0 01-19 0zM2 49.5a9.5 9.5 0 019.5-9.5H21v9.5a9.5 9.5 0 11-19 0z"/><path d="M21 2v19h9.5a9.5 9.5 0 100-19H21zM2 11.5a9.5 9.5 0 009.5 9.5H21V2h-9.5A9.5 9.5 0 002 11.5zM2 30.5a9.5 9.5 0 009.5 9.5H21V21h-9.5A9.5 9.5 0 002 30.5z"/></svg><svg viewBox="0 0 19 18" id="github" xmlns="http://www.w3.org/2000/svg"><path d="M9.243 0C4.139 0 0 4.045 0 9.036c0 3.992 2.648 7.378 6.323 8.574.462.083.63-.196.63-.436 0-.215-.007-.783-.012-1.537-2.571.546-3.114-1.211-3.114-1.211-.42-1.044-1.026-1.322-1.026-1.322-.84-.56.062-.549.062-.549.928.064 1.416.931 1.416.931.825 1.38 2.164.983 2.69.75.084-.583.323-.981.588-1.207-2.052-.229-4.21-1.004-4.21-4.466 0-.986.36-1.793.951-2.425-.095-.228-.412-1.147.09-2.39 0 0 .777-.244 2.543.925.737-.2 1.527-.3 2.314-.303a9.065 9.065 0 012.315.304c1.764-1.169 2.54-.926 2.54-.926.503 1.245.186 2.163.092 2.391.592.632.95 1.439.95 2.426 0 3.47-2.161 4.234-4.22 4.458.331.279.627.83.627 1.673 0 1.208-.011 2.182-.011 2.478 0 .242.166.523.635.434 3.669-1.197 6.315-4.582 6.315-8.572 0-4.99-4.14-9.036-9.245-9.036z"/></svg><svg viewBox="0 0 19 18" id="instagram" xmlns="http://www.w3.org/2000/svg"><path d="M12.71 0H5.777C2.587 0 0 2.519 0 5.625v6.75C0 15.481 2.587 18 5.777 18h6.933c3.19 0 5.778-2.519 5.778-5.625v-6.75C18.488 2.519 15.9 0 12.71 0zm4.045 12.375c0 2.171-1.815 3.938-4.045 3.938H5.777c-2.23 0-4.044-1.767-4.044-3.938v-6.75c0-2.171 1.814-3.938 4.044-3.938h6.933c2.23 0 4.045 1.767 4.045 3.938v6.75z"/><path d="M9.244 4.5C6.69 4.5 4.622 6.515 4.622 9s2.07 4.5 4.622 4.5 4.622-2.015 4.622-4.5-2.07-4.5-4.622-4.5zm0 7.313c-1.592 0-2.889-1.263-2.889-2.813 0-1.551 1.297-2.812 2.889-2.812 1.592 0 2.889 1.26 2.889 2.812 0 1.55-1.297 2.813-2.89 2.813zM14.213 4.762c.34 0 .615-.268.615-.6 0-.33-.275-.6-.615-.6a.608.608 0 00-.616.6c0 .332.275.6.616.6z"/></svg><svg viewBox="0 0 50 50" id="photoshop" xmlns="http://www.w3.org/2000/svg"><path d="M6 4c-1.093 0-2 .907-2 2v38c0 1.093.907 2 2 2h38c1.093 0 2-.907 2-2V6c0-1.093-.907-2-2-2H6zm0 2h38v38H6V6zm12.586 8c-1.44 0-2.592.16-3.584.416L15 36h2.465v-9.17c.352.031.672.031 1.088.031 1.92 0 3.936-.798 5.088-2.398.833-1.088 1.31-2.432 1.31-4.416 0-1.887-.543-3.457-1.566-4.48-1.12-1.089-2.816-1.567-4.8-1.567zm.39 1.64c2.752 0 3.647 1.982 3.647 4.19 0 3.04-1.632 4.64-4.031 4.64-.416 0-.704-.03-.992-.062v-8.607c.32-.097.8-.16 1.377-.16zM31.717 20c-2.49 0-4.415 1.769-4.415 4.307 0 1.767 1.127 3.116 3.219 4.433 1.626 1.028 2.056 1.864 2.056 3.053 0 1.381-.927 2.248-2.355 2.248-1.03 0-2.026-.45-2.59-.803L27 35.1c.697.546 1.992.9 3.154.9C32.81 36 35 34.49 35 31.373c0-2.152-1.46-3.599-3.316-4.756-1.594-1.027-1.993-1.638-1.993-2.666 0-1.027.696-1.99 2.057-1.99.863 0 1.528.289 2.158.707l.664-1.865c-.664-.417-1.591-.803-2.853-.803z"/></svg><svg viewBox="0 0 55.992 55.992" id="sketch" xmlns="http://www.w3.org/2000/svg"><path d="M55.963 18.713c.006-.025.015-.049.019-.074a1.011 1.011 0 00-.009-.338c-.005-.027-.017-.051-.025-.077-.016-.055-.027-.11-.052-.162-.017-.035-.043-.062-.063-.094-.011-.017-.012-.036-.024-.053l-7.5-10.5a.967.967 0 00-.404-.313.99.99 0 00-.513-.523l-9.25-4a1.004 1.004 0 00-.397-.082h-19.5c-.137 0-.271.028-.397.082l-9.25 4a.993.993 0 00-.512.522.975.975 0 00-.404.314l-7.5 10.5c-.012.016-.013.036-.024.053-.02.032-.046.059-.062.094-.025.052-.036.108-.052.162-.007.026-.019.051-.024.077a.985.985 0 00-.009.338c.004.026.013.049.019.074a1.016 1.016 0 00.145.34c.014.021.022.045.038.066l27 34c.008.01.021.014.029.023a.99.99 0 00.302.241c.018.009.037.015.056.023.124.054.257.091.397.091s.273-.037.397-.091c.019-.008.038-.014.056-.023.115-.059.216-.141.302-.241.008-.009.021-.013.029-.023l27-34c.016-.02.024-.045.039-.066a1.096 1.096 0 00.143-.34zM18.453 4.496h19.086l7.169 3.1-7.215 3.9H18.499l-7.215-3.9 7.169-3.1zm-2.716 25h24.518L27.996 50.512 15.737 29.496zm.04-2l3.5-14h17.468l4.064 14H15.777zM2.801 17.69l6.393-8.95 8.114 4.386-3.4 13.601-11.053-9.006c-.016-.014-.037-.019-.054-.031zm10.205 10.882a.983.983 0 00.127.428L20.1 40.945 5.267 22.266l7.739 6.306zm22.886 12.373L42.86 29a.996.996 0 00.127-.428l7.74-6.306-14.835 18.679zm6.665-14.604l-3.842-13.232 8.083-4.369 6.393 8.95c-.017.012-.038.017-.055.031l-10.579 8.62z"/></svg><svg viewBox="0 0 19 16" id="telegram" xmlns="http://www.w3.org/2000/svg"><path d="M7.254 10.511L6.948 14.7c.438 0 .627-.183.855-.402l2.051-1.91 4.25 3.031c.78.424 1.33.2 1.54-.698l2.79-12.729C18.683.869 18.019.43 17.259.705L.858 6.818c-1.119.423-1.102 1.03-.19 1.306l4.193 1.27L14.6 3.46c.457-.296.874-.132.531.163l-7.878 6.887z"/></svg><svg viewBox="0 0 20 20" id="vk" xmlns="http://www.w3.org/2000/svg"><path fill-rule="evenodd" clip-rule="evenodd" d="M1.377 1.377C0 2.753 0 4.969 0 9.4v.783c0 4.432 0 6.648 1.377 8.025 1.376 1.377 3.592 1.377 8.024 1.377h.783c4.432 0 6.648 0 8.025-1.377 1.377-1.377 1.377-3.593 1.377-8.025v-.783c0-4.432 0-6.647-1.377-8.024C16.832 0 14.616 0 10.184 0h-.783C4.969 0 2.754 0 1.377 1.377zm1.928 4.58c.106 5.093 2.652 8.153 7.116 8.153h.253v-2.913c1.64.163 2.88 1.362 3.379 2.913h2.317c-.636-2.318-2.31-3.599-3.354-4.089 1.045-.604 2.514-2.072 2.864-4.064h-2.105c-.457 1.616-1.812 3.085-3.1 3.224V5.957H8.568v5.647c-1.306-.326-2.954-1.91-3.028-5.647H3.305z"/></svg><svg viewBox="0 0 18 19" id="whatsapp" xmlns="http://www.w3.org/2000/svg"><path fill-rule="evenodd" clip-rule="evenodd" d="M18 9.625a9 9 0 01-13.748 7.648L0 18.625l1.44-4.114A9 9 0 1118 9.626zm-5.546 1.052l1.409 1.41c.352.352.352.956 0 1.358l-.957.957c-1.006 1.006-3.674-.101-6.04-2.467-2.365-2.365-3.421-5.033-2.465-6.04l.956-.955c.352-.353.956-.353 1.359 0l1.41 1.409c.502.503.301 1.359-.353 1.56-.453.151-.755.654-.604 1.107.252 1.057 1.61 2.366 2.617 2.617.453.101.956-.15 1.107-.604.202-.654 1.057-.855 1.56-.352z"/></svg></svg>