<svg width="24" height="18" viewBox="0 0 24 18" xmlns="http://www.w3.org/2000/svg">
<path d="M20.3824 1.44314C18.8872 0.775171 17.2838 0.283044 15.6074 0.00118237C15.5769 -0.00425747 15.5464 0.00933699 15.5306 0.0365266C15.3244 0.39361 15.096 0.859455 14.9361 1.22561C13.1329 0.962783 11.3391 0.962783 9.57291 1.22561C9.41292 0.851316 9.17622 0.39361 8.96908 0.0365266C8.95335 0.0102442 8.92286 -0.00335029 8.89233 0.00118237C7.21681 0.282143 5.61342 0.774271 4.11728 1.44314C4.10433 1.44857 4.09323 1.45764 4.08586 1.46942C1.04457 5.89316 0.21143 10.2082 0.620139 14.4697C0.621988 14.4905 0.634009 14.5105 0.650653 14.5231C2.65721 15.9578 4.6009 16.8288 6.5085 17.4061C6.53903 17.4152 6.57138 17.4043 6.59081 17.3799C7.04205 16.7799 7.4443 16.1473 7.78918 15.482C7.80953 15.4431 7.79011 15.3968 7.74851 15.3814C7.11048 15.1458 6.50295 14.8585 5.91855 14.5322C5.87233 14.5059 5.86863 14.4416 5.91115 14.4107C6.03413 14.321 6.15714 14.2277 6.27457 14.1334C6.29582 14.1162 6.32542 14.1126 6.3504 14.1234C10.1897 15.8301 14.3461 15.8301 18.1401 14.1234C18.165 14.1117 18.1946 14.1153 18.2168 14.1325C18.3343 14.2268 18.4573 14.321 18.5812 14.4107C18.6237 14.4416 18.6209 14.5059 18.5747 14.5322C17.9903 14.8648 17.3828 15.1458 16.7438 15.3805C16.7022 15.3959 16.6837 15.4431 16.7041 15.482C17.0563 16.1463 17.4586 16.779 17.9015 17.379C17.92 17.4043 17.9533 17.4152 17.9838 17.4061C19.9007 16.8288 21.8443 15.9578 23.8509 14.5231C23.8685 14.5105 23.8796 14.4914 23.8814 14.4706C24.3706 9.54381 23.0621 5.26418 20.4129 1.47032C20.4065 1.45764 20.3954 1.44857 20.3824 1.44314ZM8.36251 11.8749C7.20663 11.8749 6.25422 10.8417 6.25422 9.57282C6.25422 8.30397 7.18816 7.27078 8.36251 7.27078C9.54608 7.27078 10.4893 8.31304 10.4708 9.57282C10.4708 10.8417 9.53683 11.8749 8.36251 11.8749ZM16.1576 11.8749C15.0017 11.8749 14.0493 10.8417 14.0493 9.57282C14.0493 8.30397 14.9832 7.27078 16.1576 7.27078C17.3412 7.27078 18.2843 8.31304 18.2658 9.57282C18.2658 10.8417 17.3412 11.8749 16.1576 11.8749Z"/>
</svg>
