<svg width="19" height="18" viewBox="0 0 19 18" xmlns="http://www.w3.org/2000/svg">
<path d="M9.24274 0C4.13896 0 0 4.0455 0 9.036C0 13.0275 2.64838 16.4138 6.32283 17.6096C6.78502 17.6929 6.95372 17.4139 6.95372 17.1743C6.95372 16.9594 6.94563 16.3913 6.94101 15.6375C4.37005 16.1831 3.82697 14.4259 3.82697 14.4259C3.40753 13.3819 2.8009 13.104 2.8009 13.104C1.96086 12.5438 2.8633 12.555 2.8633 12.555C3.79115 12.6191 4.27877 13.4865 4.27877 13.4865C5.10379 14.8669 6.443 14.4686 6.9699 14.2369C7.05309 13.653 7.29228 13.2548 7.55689 13.0286C5.50474 12.8003 3.34629 12.0251 3.34629 8.5635C3.34629 7.57688 3.7068 6.77025 4.29841 6.138C4.20251 5.90963 3.8859 4.9905 4.38854 3.74738C4.38854 3.74738 5.16503 3.50438 6.93061 4.67325C7.66781 4.473 8.45817 4.37288 9.24505 4.3695C10.0296 4.374 10.8211 4.473 11.5595 4.67438C13.3239 3.5055 14.0993 3.7485 14.0993 3.7485C14.603 4.99275 14.2864 5.91075 14.1917 6.13913C14.7845 6.77138 15.1415 7.578 15.1415 8.56463C15.1415 12.0353 12.9807 12.7991 10.9217 13.023C11.2533 13.302 11.5491 13.8533 11.5491 14.6959C11.5491 15.9041 11.5375 16.8784 11.5375 17.1743C11.5375 17.4161 11.7039 17.6974 12.1731 17.6085C15.8417 16.4115 18.4878 13.0264 18.4878 9.036C18.4878 4.0455 14.3488 0 9.24274 0Z"/>
</svg>
