<svg width="19" height="18" viewBox="0 0 19 18" xmlns="http://www.w3.org/2000/svg">
<path d="M12.7104 0H5.77744C2.58714 0 0 2.51888 0 5.625V12.375C0 15.4811 2.58714 18 5.77744 18H12.7104C15.9007 18 18.4878 15.4811 18.4878 12.375V5.625C18.4878 2.51888 15.9007 0 12.7104 0ZM16.7546 12.375C16.7546 14.5463 14.9404 16.3125 12.7104 16.3125H5.77744C3.54735 16.3125 1.73323 14.5463 1.73323 12.375V5.625C1.73323 3.45375 3.54735 1.6875 5.77744 1.6875H12.7104C14.9404 1.6875 16.7546 3.45375 16.7546 5.625V12.375Z"/>
<path d="M9.2439 4.50024C6.69143 4.50024 4.62195 6.51512 4.62195 9.00024C4.62195 11.4854 6.69143 13.5002 9.2439 13.5002C11.7964 13.5002 13.8658 11.4854 13.8658 9.00024C13.8658 6.51512 11.7964 4.50024 9.2439 4.50024ZM9.2439 11.8127C7.65164 11.8127 6.35518 10.5505 6.35518 9.00024C6.35518 7.44887 7.65164 6.18774 9.2439 6.18774C10.8362 6.18774 12.1326 7.44887 12.1326 9.00024C12.1326 10.5505 10.8362 11.8127 9.2439 11.8127Z"/>
<path d="M14.2125 4.76212C14.5526 4.76212 14.8284 4.49365 14.8284 4.16249C14.8284 3.83133 14.5526 3.56287 14.2125 3.56287C13.8724 3.56287 13.5967 3.83133 13.5967 4.16249C13.5967 4.49365 13.8724 4.76212 14.2125 4.76212Z"/>
</svg>
