<svg width="20" height="20" viewBox="0 0 20 20" xmlns="http://www.w3.org/2000/svg">
<path fill-rule="evenodd" clip-rule="evenodd" d="M1.37675 1.37675C0 2.7535 0 4.96932 0 9.40103V10.1844C0 14.6161 0 16.832 1.37675 18.2087C2.7535 19.5855 4.96932 19.5855 9.40103 19.5855H10.1844C14.6161 19.5855 16.832 19.5855 18.2087 18.2087C19.5855 16.832 19.5855 14.6161 19.5855 10.1844V9.40103C19.5855 4.96932 19.5855 2.7535 18.2087 1.37675C16.832 0 14.6161 0 10.1844 0H9.40103C4.96932 0 2.7535 0 1.37675 1.37675ZM3.30509 5.95735C3.41118 11.0496 5.95725 14.1098 10.4211 14.1098H10.6742V11.1965C12.3144 11.3597 13.5547 12.5593 14.0525 14.1098H16.3702C15.7337 11.7922 14.0607 10.511 13.0161 10.0213C14.0607 9.41746 15.5296 7.94854 15.8805 5.95735H13.775C13.318 7.57316 11.9635 9.04207 10.6742 9.1808V5.95735H8.56864V11.6045C7.26295 11.2781 5.61454 9.69492 5.5411 5.95735H3.30509Z" />
</svg>
