<svg width="18" height="19" viewBox="0 0 18 19" xmlns="http://www.w3.org/2000/svg">
<path fill-rule="evenodd" clip-rule="evenodd" d="M18 9.62537C18 14.5959 13.9706 18.6254 9 18.6254C7.25726 18.6254 5.63021 18.13 4.25196 17.2725L0 18.6254L1.4401 14.5108C0.529004 13.1038 0 11.4264 0 9.62537C0 4.6548 4.02944 0.625366 9 0.625366C13.9706 0.625366 18 4.6548 18 9.62537ZM12.4535 10.6771L13.8627 12.0863C14.215 12.4386 14.215 13.0426 13.8627 13.4452L12.9064 14.4015C11.8998 15.4081 9.2324 14.3008 6.86693 11.9353C4.50145 9.56987 3.44454 6.90242 4.4008 5.89584L5.35705 4.93958C5.70935 4.58728 6.3133 4.58728 6.71594 4.93958L8.12516 6.3488C8.62845 6.85209 8.42713 7.70769 7.77285 7.909C7.31989 8.05997 7.01791 8.56326 7.1689 9.01624C7.42055 10.0732 8.77943 11.3817 9.78602 11.6334C10.239 11.734 10.7423 11.4824 10.8933 11.0294C11.0946 10.3752 11.9502 10.1738 12.4535 10.6771Z"/>
</svg>
